<svg width="512" height="640" viewBox="0 0 512 640" fill="none" xmlns="http://www.w3.org/2000/svg">
  <rect width="512" height="640" rx="54" fill="#E7CFC1"/>
  <path d="M95 638C105 500 156 421 257 421C358 421 407 500 417 638H95Z" fill="#7B4A38"/>
  <path d="M128 239C128 131 182 66 258 66C334 66 386 132 386 239V350C386 437 329 489 258 489C187 489 128 437 128 350V239Z" fill="#3B241E"/>
  <path d="M157 250C157 148 198 96 258 96C318 96 359 148 359 250V337C359 404 317 447 258 447C199 447 157 404 157 337V250Z" fill="#B9795E"/>
  <path d="M159 243C185 189 222 158 279 149C319 142 348 155 370 185C357 113 316 76 258 76C197 76 153 119 139 199C143 213 150 228 159 243Z" fill="#3B241E"/>
  <circle cx="213" cy="288" r="11" fill="#533B2F"/>
  <circle cx="303" cy="288" r="11" fill="#533B2F"/>
  <path d="M239 349C251 357 266 357 278 349" stroke="#714230" stroke-width="8" stroke-linecap="round"/>
  <circle cx="202" cy="327" r="4" fill="#8D5642"/>
  <circle cx="221" cy="337" r="3" fill="#8D5642"/>
  <circle cx="294" cy="337" r="3" fill="#8D5642"/>
  <circle cx="314" cy="327" r="4" fill="#8D5642"/>
  <path d="M232 431C239 455 276 455 283 431" stroke="#E8CDBA" stroke-width="8" stroke-linecap="round"/>
  <circle cx="258" cy="457" r="7" fill="#D6A44B"/>
  <path d="M198 108C130 164 96 274 105 397C73 317 73 184 126 112C164 61 224 40 275 54C245 64 219 80 198 108Z" fill="#2B1A16"/>
  <path d="M309 62C382 94 421 177 411 293C407 345 394 389 374 425C386 285 362 171 300 121C292 114 287 109 285 104C278 84 287 69 309 62Z" fill="#2B1A16"/>
</svg>
